<?xml version="1.0" encoding="UTF-8" standalone="no"?>
<!DOCTYPE svg PUBLIC "-//W3C//DTD SVG 1.1//EN" "http://www.w3.org/Graphics/SVG/1.1/DTD/svg11.dtd">
<svg width="100%" height="100%" viewBox="0 0 500 500" version="1.1" xmlns="http://www.w3.org/2000/svg" xmlns:xlink="http://www.w3.org/1999/xlink" xml:space="preserve" xmlns:serif="http://www.serif.com/" style="fill-rule:evenodd;clip-rule:evenodd;stroke-linejoin:round;stroke-miterlimit:2;">
    <g transform="matrix(1,0,0,1,-1043.81,-477.31)">
        <path d="M1334.55,751.68C1332.84,754.54 1333.79,758.82 1331.51,762.64C1326.69,770.68 1314.46,770.39 1305.33,764.92C1287.2,754.06 1290.59,739.43 1279.28,732.65C1266.19,724.81 1260.86,737.73 1247.64,729.81C1236.6,723.2 1235.44,705.65 1242.3,694.2C1248.91,683.16 1259.1,678.52 1270.28,685.21C1276.82,689.13 1281.68,696.48 1278.33,702.07C1274.74,708.07 1265.36,704.86 1262.31,703.77C1254.73,701.27 1252.2,704.57 1251.47,705.8C1248.61,710.57 1252.54,716.07 1256.77,718.6C1267.4,724.97 1272.25,719.35 1282.74,725.64C1297.19,734.29 1294.07,751.87 1306.47,759.3C1313.97,763.79 1323.59,763.81 1327.51,757.27C1334.12,746.23 1321.66,731.17 1325.58,724.63C1327.62,721.22 1332.55,721.03 1335.96,723.07C1343.73,727.72 1349.24,735.84 1344.67,743.47C1342.47,747.15 1336.69,748.14 1334.57,751.68L1334.55,751.68Z" style="fill:rgb(165,172,248);fill-rule:nonzero;"/>
    </g>
</svg>
