<?xml version="1.0" encoding="UTF-8" standalone="no"?>
<!DOCTYPE svg PUBLIC "-//W3C//DTD SVG 1.1//EN" "http://www.w3.org/Graphics/SVG/1.1/DTD/svg11.dtd">
<svg width="100%" height="100%" viewBox="0 0 500 500" version="1.1" xmlns="http://www.w3.org/2000/svg" xmlns:xlink="http://www.w3.org/1999/xlink" xml:space="preserve" xmlns:serif="http://www.serif.com/" style="fill-rule:evenodd;clip-rule:evenodd;stroke-linejoin:round;stroke-miterlimit:2;">
    <g transform="matrix(1,0,0,1,-882.077229,-317.675811)">
        <path d="M1102.97,561.9C1106.21,543.9 1122.63,532.16 1140.88,535.44C1149.76,537.04 1156.57,541.78 1160.52,547.01C1161.44,548.18 1161.93,549.65 1161.67,551.11C1161.45,552.33 1160.89,553.36 1159.43,554.47L1133.12,576.49C1131.95,577.41 1130.77,577.7 1129.43,577.46C1126.75,576.98 1125.14,574.8 1125.6,572.25C1125.8,571.16 1126.24,570.1 1127.24,569.41L1150.24,550.44C1147.56,547.2 1143.28,545.17 1139.26,544.45C1126.85,542.22 1115.16,550.66 1112.82,563.68C1110.5,576.57 1118.37,588.66 1130.9,590.92C1137.83,592.17 1143.85,590.11 1148.39,586.53C1149.95,585.55 1151.22,584.78 1152.92,585.08C1155.72,585.58 1157.44,587.9 1156.95,590.58C1156.78,591.55 1155.93,592.78 1154.9,593.6C1148.7,598.76 1139.49,601.75 1129.28,599.92C1111.16,596.66 1099.73,579.91 1102.96,561.91L1102.97,561.9Z" style="fill:rgb(211,146,99);fill-rule:nonzero;"/>
    </g>
</svg>
