<?xml version="1.0" encoding="UTF-8" standalone="no"?>
<!DOCTYPE svg PUBLIC "-//W3C//DTD SVG 1.1//EN" "http://www.w3.org/Graphics/SVG/1.1/DTD/svg11.dtd">
<svg width="100%" height="100%" viewBox="0 0 500 500" version="1.1" xmlns="http://www.w3.org/2000/svg" xmlns:xlink="http://www.w3.org/1999/xlink" xml:space="preserve" xmlns:serif="http://www.serif.com/" style="fill-rule:evenodd;clip-rule:evenodd;stroke-linejoin:round;stroke-miterlimit:2;">
    <g transform="matrix(1,0,0,1,-815.594998,-84.85)">
        <path d="M1078.37,396.83C1078.53,395.5 1078.62,388.53 1078.79,387.05C1074.9,390.11 1070.28,391.83 1064.94,391.91C1049.23,391.86 1030.14,376.94 1030.65,348.63C1031.11,323.88 1048.83,306.17 1067.81,306.41C1073.44,306.48 1077.57,308.17 1080.65,310.87C1080.52,297.82 1080.39,284.78 1079.95,272.61L1100.55,272.87C1099.17,288.42 1098.46,308.87 1098.19,330.51C1097.93,351.11 1098.33,378.1 1099.12,397.09L1078.37,396.83ZM1066.89,320.78C1055.77,320.78 1049.37,334.05 1049.15,351.39C1048.95,367.1 1056.84,376.25 1066.18,376.36C1073.59,376.31 1077.65,372.36 1079.77,368.68C1080.21,357.72 1080.51,345.41 1080.67,332.67C1078.82,326.27 1074.3,320.73 1066.89,320.78Z" style="fill:rgb(189,106,119);fill-rule:nonzero;"/>
    </g>
</svg>
