<?xml version="1.0" encoding="UTF-8" standalone="no"?><!DOCTYPE svg PUBLIC "-//W3C//DTD SVG 1.1//EN" "http://www.w3.org/Graphics/SVG/1.1/DTD/svg11.dtd"><svg width="100%" height="100%" viewBox="0 0 295 295" version="1.1" xmlns="http://www.w3.org/2000/svg" xmlns:xlink="http://www.w3.org/1999/xlink" xml:space="preserve" xmlns:serif="http://www.serif.com/" style="fill-rule:evenodd;clip-rule:evenodd;stroke-linejoin:round;stroke-miterlimit:2;"><g id="_13" serif:id="13"><path d="M147.32,171.944c2.87,-1.81 3.84,-6.17 6.18,-8.4c1.14,-1.13 2.73,-1.5 4.27,-1.48c4.4,0.39 8.91,-1.41 13.22,-0.47c1.53,0.35 2.9,1.19 4.24,1.99c0.85,0.5 2.06,1.04 2.89,0.48c0.89,-0.61 0.59,-2 0,-2.83c-3.6,-4.55 -9.55,-6.59 -13.26,-10.93c-2.32,-2.54 -2.03,-4.93 1.11,-6.39c3.05,-1.51 6.54,-1.99 9.95,-1.79c0.92,0.03 2.15,0.14 2.85,-0.49c1.16,-1.36 -0.95,-2.89 -2.02,-3.49c-2.61,-1.51 -5.67,-2.14 -8.66,-2.43c-1.87,-0.01 -3.75,-0.02 -5.62,0.09c-1.96,0.09 -4.04,0.5 -5.94,0.5c-5.46,0.18 -4.92,-6.03 -6.15,-10.3c-0.74,-2.82 -1.8,-5.69 -3.44,-8.06c-0.93,-1.31 -2.26,-2.76 -3.71,-2.72c-2.15,0.31 -2.45,3.67 -2.86,5.81c-0.76,3.89 -1.64,7.61 -4.61,10.36c-3.56,3.29 -8.15,3.31 -12.57,4.21c-1.19,0.24 -2.41,0.6 -3.32,1.44c-0.19,0.18 -0.38,0.4 -0.38,0.66c0,0.33 0.29,0.58 0.56,0.75c1.57,0.96 3.5,1.03 5.18,1.75c4,1.72 5.21,6.19 4.12,10.27c-0.71,2.66 -2.22,5.03 -3.65,7.41c-0.5,0.85 -1.3,2.23 -1.02,3.12c0.63,1.34 3.14,0.3 4.3,0.04c1.09,-0.31 2.19,-0.59 3.31,-0.77c4.48,-0.76 7.78,0.72 10.62,4.25c0.96,1.57 2.26,7.17 4.37,7.41l0.04,0.01Z" style="fill:#c55697;fill-rule:nonzero;"/><path d="M137.99,141.314c-0.7,-2.32 2.23,-3.02 3.67,-3.91c1.01,-0.55 1.97,-1.86 3.2,-1.45c1.85,0.93 2.59,4.16 3.18,6.08c0.56,2.31 1.7,4.65 4.33,4.46c0.85,0.07 2.37,-0.61 2.49,0.08c0.02,0.51 -0.21,1.05 -0.22,1.6c-0.04,0.6 0.12,1.19 0.47,1.66c0.88,1.22 2.73,2.17 2.55,3.91c-0.52,0.76 -2.29,-0.05 -3.11,0.02c-1.51,-0.11 -3.14,0.24 -4.04,1.58c-1.27,2.23 -2.88,1.71 -4.48,0.17c-1.06,-1.11 -1.85,-2.8 -3.14,-3.68c-0.74,-0.54 -1.63,-0.63 -2.51,-0.56c-0.62,0.03 -1.46,0.14 -1.82,-0.4c-0.47,-0.91 0.12,-2.53 0.06,-3.77c-0.02,-1.21 0.45,-2.78 0.31,-3.84c-0.11,-0.72 -0.62,-1.26 -0.9,-1.91l-0.02,-0.05l-0.02,0.01Z" style="fill:#584193;fill-rule:nonzero;"/><rect x="0.5" y="-0" width="294.393" height="294.393" style="fill:none;"/></g></svg>