<?xml version="1.0" encoding="UTF-8" standalone="no"?>
<!DOCTYPE svg PUBLIC "-//W3C//DTD SVG 1.1//EN" "http://www.w3.org/Graphics/SVG/1.1/DTD/svg11.dtd">
<svg width="100%" height="100%" viewBox="0 0 295 295" version="1.1" xmlns="http://www.w3.org/2000/svg" xmlns:xlink="http://www.w3.org/1999/xlink" xml:space="preserve" xmlns:serif="http://www.serif.com/" style="fill-rule:evenodd;clip-rule:evenodd;stroke-linejoin:round;stroke-miterlimit:2;">
    <g transform="matrix(1,0,0,1,-221.788137,-362.393192)">
        <g id="_26" serif:id="26" transform="matrix(1,0,0,1,-346.465214,346.404837)">
            <g transform="matrix(1,0,0,1,-18.64985,11.22721)">
                <path d="M725.84,134.61C723.51,136.54 721.66,138.14 721.72,138.23C722.83,139.9 724.37,141.14 725.12,143.08C726.73,147.25 723.33,150.55 719.38,151.34C715.47,152.29 711.3,150.8 710.6,146.54C710.19,144.16 710.81,141.68 711.2,139.33C708.96,138.95 708.05,145.31 708.02,146.74C707.96,149.23 708.08,151.97 709.36,154.1C710.93,156.6 713.53,158.24 716,159.75C718.74,161.04 722.66,161.43 725.58,160.53C725.64,160.51 725.71,160.55 725.78,160.56C723.35,170.06 722.5,181.49 729.16,189.49C729.88,190.09 734.35,194.84 734.1,192.02C733.9,190.39 732.99,188.33 732.55,186C731.53,180.18 731.85,172.35 736.37,168.11C736.88,167.64 737.48,167.25 738.17,167.15C740.17,166.88 742.24,168.13 742.86,170.07C743.25,172.21 741.6,172.67 739.92,172.89C737.45,173.04 739.72,175.93 741.02,176.86C743.74,178.96 747.47,178.03 749.45,175.37C750.08,174.04 750.7,172.7 751.15,171.32C751.66,169.75 751.95,168.16 752.6,167.22C754.12,165.03 757.23,166.37 759.48,166.49C761.53,166.71 763.61,166.56 765.62,166.12C769.79,164.87 772.14,163.55 766.47,163.35C762.32,163.12 758.03,162.14 754.53,159.93C753.63,159.39 751.71,157.95 753.4,157.22C754.86,156.7 756.6,156.84 758.15,156.87C760.3,156.98 762.51,157.21 764.42,158.14C765.24,158.47 766.24,159.26 767.02,159.39C767.19,159.36 767.13,159.1 766.85,158.66C765.13,156.08 762.07,154.88 759.04,154.33C756.93,153.91 754.78,153.65 752.63,153.62C750.42,153.63 748.25,153.31 746.22,152.39C738,146.42 736.88,140.09 746.62,134.79C748.66,133.63 751.42,133.13 753.43,132.21C753.59,132.1 753.77,132.03 753.68,131.88C753.23,131.46 749.82,131.85 748.65,132.11C745.8,132.69 742.97,133.68 740.05,133.62C734.51,132.99 738.61,126.3 744.75,127.19C745.25,127.19 747.33,127.54 746.34,126.72C742.75,124.35 738.3,125.47 734.81,127.5C734.08,127.93 729.41,131.66 725.86,134.6L725.84,134.61Z" style="fill:rgb(42,47,108);fill-rule:nonzero;"/>
            </g>
            <g transform="matrix(1,0,0,1,-18.64985,11.22721)">
                <path d="M740.45,153.44C739.17,152.58 736.69,150.73 736.69,150.73C733.76,148.51 733.8,146.81 734.66,143.49C734.82,142.64 734.97,141.87 735.34,141.11C735.68,140.38 735.99,139.77 735.83,139.67C735.24,139.73 734.67,140.19 734.08,140.32C732.74,140.76 732.13,138.79 731.55,138.11C730.64,137.19 730.73,140.35 730.74,140.64C730.68,148.69 728.25,151.81 721.28,155.73C722.68,156.06 724.12,156.3 725.57,156.14C727.02,156.02 728.73,155.5 729.91,155.72C731.59,155.97 732.1,157.76 732.42,159.21C732.78,160.8 733.13,162.39 733.49,163.98C733.73,165.02 734.31,165.29 735.02,164.47C738.5,162.54 743.81,160.16 743.72,157.14C743.4,155.46 741.68,154.51 740.45,153.44Z" style="fill:rgb(103,109,165);fill-rule:nonzero;"/>
            </g>
        </g>
    </g>
</svg>
